<mxfile host="app.diagrams.net" agent="Mozilla/5.0 (Macintosh; Intel Mac OS X 10_15_7) AppleWebKit/605.1.15 (KHTML, like Gecko) Version/16.5 Safari/605.1.15" version="26.0.14">
  <diagram name="Page-1" id="VBMCC4fjoRUJ5R1mFIWM">
    <mxGraphModel dx="1158" dy="785" grid="1" gridSize="10" guides="1" tooltips="1" connect="1" arrows="1" fold="1" page="1" pageScale="1" pageWidth="827" pageHeight="1169" math="0" shadow="0">
      <root>
        <mxCell id="0" />
        <mxCell id="1" parent="0" />
        <mxCell id="FHAzFmaLAY5eTe1A8Twm-1" value="" style="image;aspect=fixed;html=1;points=[];align=center;fontSize=12;image=img/lib/azure2/networking/Traffic_Manager_Profiles.svg;" parent="1" vertex="1">
          <mxGeometry x="70" y="454.68" width="68" height="68" as="geometry" />
        </mxCell>
        <mxCell id="FHAzFmaLAY5eTe1A8Twm-2" value="" style="image;aspect=fixed;html=1;points=[];align=center;fontSize=12;image=img/lib/azure2/networking/Load_Balancers.svg;" parent="1" vertex="1">
          <mxGeometry x="260" y="452.68" width="72" height="72" as="geometry" />
        </mxCell>
        <mxCell id="FHAzFmaLAY5eTe1A8Twm-3" value="" style="image;aspect=fixed;html=1;points=[];align=center;fontSize=12;image=img/lib/azure2/networking/Virtual_Networks.svg;" parent="1" vertex="1">
          <mxGeometry x="427.25" y="80" width="67" height="40" as="geometry" />
        </mxCell>
        <mxCell id="FHAzFmaLAY5eTe1A8Twm-7" value="" style="whiteSpace=wrap;html=1;aspect=fixed;" parent="1" vertex="1">
          <mxGeometry x="370" y="140" width="445" height="445" as="geometry" />
        </mxCell>
        <mxCell id="FHAzFmaLAY5eTe1A8Twm-9" value="" style="image;aspect=fixed;html=1;points=[];align=center;fontSize=12;image=img/lib/azure2/networking/Subnet.svg;" parent="1" vertex="1">
          <mxGeometry x="400" y="367.8" width="50.1" height="30" as="geometry" />
        </mxCell>
        <mxCell id="FHAzFmaLAY5eTe1A8Twm-17" value="" style="rounded=0;whiteSpace=wrap;html=1;" parent="1" vertex="1">
          <mxGeometry x="660" y="210" width="130" height="130" as="geometry" />
        </mxCell>
        <mxCell id="FHAzFmaLAY5eTe1A8Twm-12" value="" style="image;aspect=fixed;html=1;points=[];align=center;fontSize=12;image=img/lib/azure2/compute/Function_Apps.svg;" parent="1" vertex="1">
          <mxGeometry x="691" y="238" width="68" height="60" as="geometry" />
        </mxCell>
        <mxCell id="FHAzFmaLAY5eTe1A8Twm-18" value="" style="rounded=0;whiteSpace=wrap;html=1;" parent="1" vertex="1">
          <mxGeometry x="660" y="433.8" width="129" height="120" as="geometry" />
        </mxCell>
        <mxCell id="FHAzFmaLAY5eTe1A8Twm-13" value="" style="image;aspect=fixed;html=1;points=[];align=center;fontSize=12;image=img/lib/azure2/networking/Private_Endpoint.svg;" parent="1" vertex="1">
          <mxGeometry x="691" y="454.68" width="70.5" height="64.63" as="geometry" />
        </mxCell>
        <mxCell id="FHAzFmaLAY5eTe1A8Twm-19" value="" style="image;aspect=fixed;html=1;points=[];align=center;fontSize=12;image=img/lib/azure2/networking/Subnet.svg;" parent="1" vertex="1">
          <mxGeometry x="660" y="170" width="52.8" height="31.61" as="geometry" />
        </mxCell>
        <mxCell id="FHAzFmaLAY5eTe1A8Twm-20" value="" style="image;aspect=fixed;html=1;points=[];align=center;fontSize=12;image=img/lib/azure2/networking/Subnet.svg;" parent="1" vertex="1">
          <mxGeometry x="660" y="393.39" width="52.8" height="31.61" as="geometry" />
        </mxCell>
        <mxCell id="FHAzFmaLAY5eTe1A8Twm-21" value="" style="image;aspect=fixed;html=1;points=[];align=center;fontSize=12;image=img/lib/azure2/networking/DNS_Zones.svg;" parent="1" vertex="1">
          <mxGeometry x="220" y="744" width="130" height="130" as="geometry" />
        </mxCell>
        <mxCell id="FHAzFmaLAY5eTe1A8Twm-24" value="" style="image;aspect=fixed;html=1;points=[];align=center;fontSize=12;image=img/lib/azure2/databases/SQL_Database.svg;" parent="1" vertex="1">
          <mxGeometry x="687.25" y="710" width="78" height="104" as="geometry" />
        </mxCell>
        <mxCell id="FHAzFmaLAY5eTe1A8Twm-26" value="" style="whiteSpace=wrap;html=1;aspect=fixed;" parent="1" vertex="1">
          <mxGeometry x="400" y="410" width="150" height="150" as="geometry" />
        </mxCell>
        <mxCell id="FHAzFmaLAY5eTe1A8Twm-11" value="" style="image;aspect=fixed;html=1;points=[];align=center;fontSize=12;image=img/lib/azure2/compute/Virtual_Machine.svg;" parent="1" vertex="1">
          <mxGeometry x="410" y="425.8" width="69" height="64" as="geometry" />
        </mxCell>
        <mxCell id="FHAzFmaLAY5eTe1A8Twm-10" value="" style="image;aspect=fixed;html=1;points=[];align=center;fontSize=12;image=img/lib/azure2/compute/Virtual_Machine.svg;" parent="1" vertex="1">
          <mxGeometry x="470" y="489.8" width="69" height="64" as="geometry" />
        </mxCell>
        <mxCell id="FHAzFmaLAY5eTe1A8Twm-27" value="" style="whiteSpace=wrap;html=1;aspect=fixed;" parent="1" vertex="1">
          <mxGeometry x="400" y="209" width="118" height="118" as="geometry" />
        </mxCell>
        <mxCell id="FHAzFmaLAY5eTe1A8Twm-29" value="" style="image;aspect=fixed;html=1;points=[];align=center;fontSize=12;image=img/lib/azure2/networking/Private_Endpoint.svg;" parent="1" vertex="1">
          <mxGeometry x="423.75" y="225.37" width="70.5" height="64.63" as="geometry" />
        </mxCell>
        <mxCell id="FHAzFmaLAY5eTe1A8Twm-31" value="" style="image;aspect=fixed;html=1;points=[];align=center;fontSize=12;image=img/lib/azure2/networking/Subnet.svg;" parent="1" vertex="1">
          <mxGeometry x="400" y="170" width="52.8" height="31.61" as="geometry" />
        </mxCell>
        <mxCell id="FHAzFmaLAY5eTe1A8Twm-32" value="" style="shape=flexArrow;endArrow=classic;html=1;rounded=0;fillColor=#647687;strokeColor=#314354;" parent="1" edge="1">
          <mxGeometry width="50" height="50" relative="1" as="geometry">
            <mxPoint x="160" y="489.8" as="sourcePoint" />
            <mxPoint x="240" y="489.8" as="targetPoint" />
          </mxGeometry>
        </mxCell>
        <mxCell id="xaF4UspJZIbOkzoH17UH-1" value="" style="endArrow=none;dashed=1;html=1;rounded=0;strokeWidth=5;" edge="1" parent="1">
          <mxGeometry width="50" height="50" relative="1" as="geometry">
            <mxPoint x="654.4070103092785" y="310" as="sourcePoint" />
            <mxPoint x="295.59000000000003" y="769.0234925606892" as="targetPoint" />
            <Array as="points">
              <mxPoint x="549.84" y="730" />
            </Array>
          </mxGeometry>
        </mxCell>
        <mxCell id="xaF4UspJZIbOkzoH17UH-2" value="" style="endArrow=none;dashed=1;html=1;dashPattern=1 3;strokeWidth=2;rounded=0;" edge="1" parent="1" target="FHAzFmaLAY5eTe1A8Twm-18">
          <mxGeometry width="50" height="50" relative="1" as="geometry">
            <mxPoint x="310" y="760" as="sourcePoint" />
            <mxPoint x="360" y="710" as="targetPoint" />
          </mxGeometry>
        </mxCell>
        <mxCell id="xaF4UspJZIbOkzoH17UH-3" value="" style="shape=flexArrow;endArrow=classic;html=1;rounded=0;fillColor=#647687;strokeColor=#314354;" edge="1" parent="1">
          <mxGeometry width="50" height="50" relative="1" as="geometry">
            <mxPoint x="724.5037245392822" y="563.8" as="sourcePoint" />
            <mxPoint x="725.39" y="710" as="targetPoint" />
            <Array as="points">
              <mxPoint x="725.39" y="710" />
            </Array>
          </mxGeometry>
        </mxCell>
        <mxCell id="xaF4UspJZIbOkzoH17UH-5" value="" style="endArrow=none;dashed=1;html=1;dashPattern=1 3;strokeWidth=7;rounded=0;fillColor=#647687;strokeColor=#314354;" edge="1" parent="1">
          <mxGeometry width="50" height="50" relative="1" as="geometry">
            <mxPoint x="180" y="268" as="sourcePoint" />
            <mxPoint x="410" y="267.5" as="targetPoint" />
          </mxGeometry>
        </mxCell>
        <mxCell id="xaF4UspJZIbOkzoH17UH-6" value="" style="image;aspect=fixed;html=1;points=[];align=center;fontSize=12;image=img/lib/azure2/storage/Storage_Accounts.svg;" vertex="1" parent="1">
          <mxGeometry x="90" y="246" width="65" height="52" as="geometry" />
        </mxCell>
      </root>
    </mxGraphModel>
  </diagram>
</mxfile>
